<?xml version="1.0" encoding="UTF-8"?>
<!DOCTYPE svg PUBLIC "-//W3C//DTD SVG 1.1//EN" "http://www.w3.org/Graphics/SVG/1.1/DTD/svg11.dtd">
<!-- Creator: CorelDRAW X6 -->
<svg xmlns="http://www.w3.org/2000/svg" xml:space="preserve" width="320px" height="240px" version="1.1" style="shape-rendering:geometricPrecision; text-rendering:geometricPrecision; image-rendering:optimizeQuality; fill-rule:evenodd; clip-rule:evenodd"
viewBox="0 0 320 240"
 xmlns:xlink="http://www.w3.org/1999/xlink">
 <defs>
  <style type="text/css">
   <![CDATA[
    .str3 {stroke:#2B2A29;stroke-width:0.900004}
    .str4 {stroke:#A75F4A;stroke-width:0.900004}
    .str0 {stroke:#4E565A;stroke-width:41.6671}
    .str1 {stroke:#B7CBD8;stroke-width:41.6671}
    .str2 {stroke:#FECC00;stroke-width:41.6671}
    .fil1 {fill:none}
    .fil2 {fill:#1C1B17}
    .fil0 {fill:#FFF297}
   ]]>
  </style>
   <clipPath id="id0">
    <rect x="76" y="118" width="31.1411" height="31.1411"/>
   </clipPath>
   <clipPath id="id1">
    <rect x="120" y="71" width="31.2698" height="31.2698"/>
   </clipPath>
   <clipPath id="id2">
    <rect x="200" y="95" width="24.8635" height="24.8635"/>
   </clipPath>
 </defs>
 <rect class="fil0" width="320" height="240"/>
 <g id="Layer_x0020_1">
  <metadata id="CorelCorpID_0Corel-Layer"/>
  <path class="fil1 str0" d="M40 160c0,-66 54,-120 120,-120 66,0 120,54 120,120"/>
  <path class="fil1 str1" d="M75 75c23,-22 53,-35 85,-35 66,0 120,54 120,120"/>
  <path class="fil1 str2" d="M160 40c66,0 120,54 120,120"/>
  <circle class="fil2 str3" cx="160" cy="160" r="4"/>
  <g style="clip-path:url(#id0)">
   <image id="night.png" x="76" y="118" width="31.1399" height="31.1399" xlink:href="TSL_2561_page_320_240_sensor_Images\TSL_2561_page_320_240_sensor_ImgID1.gif"/>
  </g>
  <g style="clip-path:url(#id1)">
   <image id="partly-cloudy-day-icon.png" x="120" y="71" width="31.2687" height="31.2687" xlink:href="TSL_2561_page_320_240_sensor_Images\TSL_2561_page_320_240_sensor_ImgID2.gif"/>
  </g>
  <g style="clip-path:url(#id2)">
   <image id="_419px-Nuvola_weather_sunny.svg.png" x="200" y="95" width="24.8623" height="24.8623" xlink:href="TSL_2561_page_320_240_sensor_Images\TSL_2561_page_320_240_sensor_ImgID3.gif"/>
  </g>
  <line class="fil1 str4" x1="244" y1="160" x2="259" y2= "160" />
  <line class="fil1 str4" x1="101" y1="101" x2="90" y2= "90" />
  <line class="fil1 str4" x1="160" y1="76" x2="160" y2= "61" />
  <line class="fil1 str4" x1="61" y1="160" x2="76" y2= "160" />
 </g>
</svg>
